<?xml version="1.0" encoding="UTF-8" standalone="no"?>
<!DOCTYPE svg PUBLIC "-//W3C//DTD SVG 1.0//EN" "http://www.w3.org/TR/2001/PR-SVG-20010719/DTD/svg10.dtd">
<svg width="31cm" height="39cm" viewBox="122 142 619 762" xmlns="http://www.w3.org/2000/svg" xmlns:xlink="http://www.w3.org/1999/xlink">
  <defs/>
  <g id="Hintergrund">
    <g>
      <rect style="fill: #ffffff; fill-opacity: 1; stroke-opacity: 0; stroke-width: 0.02; stroke: #ffffff" x="390.767" y="594.997" width="123.383" height="20.5638" rx="0" ry="0"/>
      <rect style="fill: none; stroke-opacity: 1; stroke-width: 2.05638; stroke: #000000" x="390.767" y="594.997" width="123.383" height="20.5638" rx="0" ry="0"/>
    </g>
    <line style="fill: none; stroke-opacity: 1; stroke-width: 1.02819; stroke-dasharray: 3.29022; stroke: #000000" x1="472.948" y1="758.45" x2="658.064" y2="657.478"/>
    <line style="fill: none; stroke-opacity: 1; stroke-width: 1.02819; stroke-dasharray: 3.29022; stroke: #000000" x1="483.442" y1="758.369" x2="647.57" y2="698.686"/>
    <line style="fill: none; stroke-opacity: 1; stroke-width: 1.02819; stroke-dasharray: 3.29022; stroke: #000000" x1="514.478" y1="758.369" x2="616.534" y2="739.814"/>
    <line style="fill: none; stroke-opacity: 1; stroke-width: 1.02819; stroke-dasharray: 3.29022; stroke: #000000" x1="514.699" y1="769.655" x2="616.313" y2="769.655"/>
    <line style="fill: none; stroke-opacity: 1; stroke-width: 1.02819; stroke-dasharray: 3.29022; stroke: #000000" x1="514.478" y1="780.942" x2="616.534" y2="799.497"/>
    <line style="fill: none; stroke-opacity: 1; stroke-width: 1.02819; stroke-dasharray: 3.29022; stroke: #000000" x1="483.442" y1="780.942" x2="647.57" y2="840.624"/>
    <line style="fill: none; stroke-opacity: 1; stroke-width: 1.02819; stroke-dasharray: 3.29022; stroke: #000000" x1="472.948" y1="780.861" x2="658.064" y2="881.833"/>
    <line style="fill: none; stroke-opacity: 1; stroke-width: 1.02819; stroke-dasharray: 3.29022; stroke: #000000" x1="198.216" y1="471.964" x2="443.376" y2="165.515"/>
    <line style="fill: none; stroke-opacity: 1; stroke-width: 1.02819; stroke-dasharray: 3.29022; stroke: #000000" x1="199.501" y1="471.969" x2="442.091" y2="206.638"/>
    <line style="fill: none; stroke-opacity: 1; stroke-width: 1.02819; stroke-dasharray: 3.29022; stroke: #000000" x1="201.14" y1="472.045" x2="440.452" y2="247.689"/>
    <line style="fill: none; stroke-opacity: 1; stroke-width: 1.02819; stroke-dasharray: 3.29022; stroke: #000000" x1="203.662" y1="471.941" x2="437.93" y2="288.921"/>
    <line style="fill: none; stroke-opacity: 1; stroke-width: 1.02819; stroke-dasharray: 3.29022; stroke: #000000" x1="207.245" y1="471.964" x2="434.348" y2="330.026"/>
    <line style="fill: none; stroke-opacity: 1; stroke-width: 1.02819; stroke-dasharray: 3.29022; stroke: #000000" x1="213.093" y1="472.045" x2="428.499" y2="371.073"/>
    <line style="fill: none; stroke-opacity: 1; stroke-width: 1.02819; stroke-dasharray: 3.29022; stroke: #000000" x1="416.289" y1="412.281" x2="225.303" y2="471.964"/>
    <line style="fill: none; stroke-opacity: 1; stroke-width: 1.02819; stroke-dasharray: 3.29022; stroke: #000000" x1="389.677" y1="451.923" x2="256.028" y2="472.807"/>
    <line style="fill: none; stroke-opacity: 1; stroke-width: 1.02819; stroke-dasharray: 3.29022; stroke: #000000" x1="256.028" y1="483.25" x2="389.677" y2="483.25"/>
    <line style="fill: none; stroke-opacity: 1; stroke-width: 1.02819; stroke-dasharray: 3.29022; stroke: #000000" x1="256.028" y1="493.694" x2="389.677" y2="514.577"/>
    <line style="fill: none; stroke-opacity: 1; stroke-width: 1.02819; stroke-dasharray: 3.29022; stroke: #000000" x1="225.303" y1="494.537" x2="416.289" y2="554.219"/>
    <line style="fill: none; stroke-opacity: 1; stroke-width: 1.02819; stroke-dasharray: 3.29022; stroke: #000000" x1="205.386" y1="493.527" x2="428.499" y2="635.067"/>
    <line style="fill: none; stroke-opacity: 1; stroke-width: 1.02819; stroke-dasharray: 3.29022; stroke: #000000" x1="202.25" y1="493.527" x2="434.348" y2="676.114"/>
    <line style="fill: none; stroke-opacity: 1; stroke-width: 1.02819; stroke-dasharray: 3.29022; stroke: #000000" x1="200.126" y1="493.539" x2="437.93" y2="717.219"/>
    <line style="fill: none; stroke-opacity: 1; stroke-width: 1.02819; stroke-dasharray: 3.29022; stroke: #000000" x1="198.581" y1="493.538" x2="440.452" y2="758.45"/>
    <line style="fill: none; stroke-opacity: 1; stroke-width: 1.02819; stroke-dasharray: 3.29022; stroke: #000000" x1="197.407" y1="493.529" x2="442.091" y2="799.502"/>
    <line style="fill: none; stroke-opacity: 1; stroke-width: 1.02819; stroke-dasharray: 3.29022; stroke: #000000" x1="196.448" y1="493.459" x2="443.376" y2="840.624"/>
    <g>
      <rect style="fill: #ffffff; fill-opacity: 1; stroke-opacity: 0; stroke-width: 0.02; stroke: #ffffff" x="390.713" y="143.947" width="123.383" height="20.5638" rx="0" ry="0"/>
      <rect style="fill: none; stroke-opacity: 1; stroke-width: 2.05638; stroke: #000000" x="390.713" y="143.947" width="123.383" height="20.5638" rx="0" ry="0"/>
    </g>
    <text font-size="13.1625" style="fill: #000000; fill-opacity: 1; stroke: none;text-anchor:start;font-family:monospace;font-style:normal;font-weight:normal" x="441.44" y="159.446">
      <tspan x="441.44" y="159.446">bin</tspan>
    </text>
    <g>
      <rect style="fill: #ffffff; fill-opacity: 1; stroke-opacity: 0; stroke-width: 0.02; stroke: #ffffff" x="123.383" y="472.968" width="131.609" height="20.5638" rx="0" ry="0"/>
      <rect style="fill: none; stroke-opacity: 1; stroke-width: 2.05638; stroke: #000000" x="123.383" y="472.968" width="131.609" height="20.5638" rx="0" ry="0"/>
    </g>
    <text font-size="13.1625" style="fill: #000000; fill-opacity: 1; stroke: none;text-anchor:start;font-family:monospace;font-style:normal;font-weight:700" x="164.511" y="489.568">
      <tspan x="164.511" y="489.568">/ (root)</tspan>
    </text>
    <g>
      <rect style="fill: #ffffff; fill-opacity: 1; stroke-opacity: 0; stroke-width: 0.02; stroke: #ffffff" x="390.713" y="185.075" width="123.383" height="20.5638" rx="0" ry="0"/>
      <rect style="fill: none; stroke-opacity: 1; stroke-width: 2.05638; stroke: #000000" x="390.713" y="185.075" width="123.383" height="20.5638" rx="0" ry="0"/>
    </g>
    <text font-size="13.1625" style="fill: #000000; fill-opacity: 1; stroke: none;text-anchor:start;font-family:monospace;font-style:normal;font-weight:normal" x="441.44" y="200.574">
      <tspan x="441.44" y="200.574">boot</tspan>
    </text>
    <g>
      <rect style="fill: #ffffff; fill-opacity: 1; stroke-opacity: 0; stroke-width: 0.02; stroke: #ffffff" x="390.713" y="226.202" width="123.383" height="20.5638" rx="0" ry="0"/>
      <rect style="fill: none; stroke-opacity: 1; stroke-width: 2.05638; stroke: #000000" x="390.713" y="226.202" width="123.383" height="20.5638" rx="0" ry="0"/>
    </g>
    <text font-size="13.1625" style="fill: #000000; fill-opacity: 1; stroke: none;text-anchor:start;font-family:monospace;font-style:normal;font-weight:normal" x="441.44" y="241.701">
      <tspan x="441.44" y="241.701">dev</tspan>
    </text>
    <g>
      <rect style="fill: #ffffff; fill-opacity: 1; stroke-opacity: 0; stroke-width: 0.02; stroke: #ffffff" x="390.713" y="267.33" width="123.383" height="20.5638" rx="0" ry="0"/>
      <rect style="fill: none; stroke-opacity: 1; stroke-width: 2.05638; stroke: #000000" x="390.713" y="267.33" width="123.383" height="20.5638" rx="0" ry="0"/>
    </g>
    <text font-size="13.1625" style="fill: #000000; fill-opacity: 1; stroke: none;text-anchor:start;font-family:monospace;font-style:normal;font-weight:normal" x="441.44" y="282.829">
      <tspan x="441.44" y="282.829">etc</tspan>
    </text>
    <g>
      <rect style="fill: #ffffff; fill-opacity: 1; stroke-opacity: 0; stroke-width: 0.02; stroke: #ffffff" x="390.713" y="308.458" width="123.383" height="20.5638" rx="0" ry="0"/>
      <rect style="fill: none; stroke-opacity: 1; stroke-width: 2.05638; stroke: #000000" x="390.713" y="308.458" width="123.383" height="20.5638" rx="0" ry="0"/>
    </g>
    <text font-size="13.1625" style="fill: #000000; fill-opacity: 1; stroke: none;text-anchor:start;font-family:monospace;font-style:normal;font-weight:normal" x="441.44" y="323.957">
      <tspan x="441.44" y="323.957">home</tspan>
    </text>
    <g>
      <rect style="fill: #ffffff; fill-opacity: 1; stroke-opacity: 0; stroke-width: 0.02; stroke: #ffffff" x="390.713" y="349.585" width="123.383" height="20.5638" rx="0" ry="0"/>
      <rect style="fill: none; stroke-opacity: 1; stroke-width: 2.05638; stroke: #000000" x="390.713" y="349.585" width="123.383" height="20.5638" rx="0" ry="0"/>
    </g>
    <text font-size="13.1625" style="fill: #000000; fill-opacity: 1; stroke: none;text-anchor:start;font-family:monospace;font-style:normal;font-weight:normal" x="441.44" y="365.084">
      <tspan x="441.44" y="365.084">lib</tspan>
    </text>
    <g>
      <rect style="fill: #ffffff; fill-opacity: 1; stroke-opacity: 0; stroke-width: 0.02; stroke: #ffffff" x="390.713" y="390.713" width="123.383" height="20.5638" rx="0" ry="0"/>
      <rect style="fill: none; stroke-opacity: 1; stroke-width: 2.05638; stroke: #000000" x="390.713" y="390.713" width="123.383" height="20.5638" rx="0" ry="0"/>
    </g>
    <text font-size="13.1625" style="fill: #000000; fill-opacity: 1; stroke: none;text-anchor:start;font-family:monospace;font-style:normal;font-weight:normal" x="441.44" y="406.212">
      <tspan x="441.44" y="406.212">lib64</tspan>
    </text>
    <g>
      <rect style="fill: #ffffff; fill-opacity: 1; stroke-opacity: 0; stroke-width: 0.02; stroke: #ffffff" x="390.713" y="431.841" width="123.383" height="20.5638" rx="0" ry="0"/>
      <rect style="fill: none; stroke-opacity: 1; stroke-width: 2.05638; stroke: #000000" x="390.713" y="431.841" width="123.383" height="20.5638" rx="0" ry="0"/>
    </g>
    <text font-size="13.1625" style="fill: #000000; fill-opacity: 1; stroke: none;text-anchor:start;font-family:monospace;font-style:normal;font-weight:normal" x="441.44" y="447.34">
      <tspan x="441.44" y="447.34">media</tspan>
    </text>
    <g>
      <rect style="fill: #ffffff; fill-opacity: 1; stroke-opacity: 0; stroke-width: 0.02; stroke: #ffffff" x="390.713" y="472.968" width="123.383" height="20.5638" rx="0" ry="0"/>
      <rect style="fill: none; stroke-opacity: 1; stroke-width: 2.05638; stroke: #000000" x="390.713" y="472.968" width="123.383" height="20.5638" rx="0" ry="0"/>
    </g>
    <text font-size="13.1625" style="fill: #000000; fill-opacity: 1; stroke: none;text-anchor:start;font-family:monospace;font-style:normal;font-weight:normal" x="441.44" y="488.467">
      <tspan x="441.44" y="488.467">mnt</tspan>
    </text>
    <g>
      <rect style="fill: #ffffff; fill-opacity: 1; stroke-opacity: 0; stroke-width: 0.02; stroke: #ffffff" x="390.713" y="514.096" width="123.383" height="20.5638" rx="0" ry="0"/>
      <rect style="fill: none; stroke-opacity: 1; stroke-width: 2.05638; stroke: #000000" x="390.713" y="514.096" width="123.383" height="20.5638" rx="0" ry="0"/>
    </g>
    <text font-size="13.1625" style="fill: #000000; fill-opacity: 1; stroke: none;text-anchor:start;font-family:monospace;font-style:normal;font-weight:normal" x="441.44" y="529.595">
      <tspan x="441.44" y="529.595">opt</tspan>
    </text>
    <g>
      <rect style="fill: #ffffff; fill-opacity: 1; stroke-opacity: 0; stroke-width: 0.02; stroke: #ffffff" x="390.713" y="555.224" width="123.383" height="20.5638" rx="0" ry="0"/>
      <rect style="fill: none; stroke-opacity: 1; stroke-width: 2.05638; stroke: #000000" x="390.713" y="555.224" width="123.383" height="20.5638" rx="0" ry="0"/>
    </g>
    <text font-size="13.1625" style="fill: #000000; fill-opacity: 1; stroke: none;text-anchor:start;font-family:monospace;font-style:normal;font-weight:normal" x="441.44" y="570.723">
      <tspan x="441.44" y="570.723">proc</tspan>
    </text>
    <g>
      <rect style="fill: #ffffff; fill-opacity: 1; stroke-opacity: 0; stroke-width: 0.02; stroke: #ffffff" x="390.713" y="635.99" width="123.383" height="20.5638" rx="0" ry="0"/>
      <rect style="fill: none; stroke-opacity: 1; stroke-width: 2.05638; stroke: #000000" x="390.713" y="635.99" width="123.383" height="20.5638" rx="0" ry="0"/>
    </g>
    <text font-size="13.1625" style="fill: #000000; fill-opacity: 1; stroke: none;text-anchor:start;font-family:monospace;font-style:normal;font-weight:normal" x="441.44" y="651.489">
      <tspan x="441.44" y="651.489">run</tspan>
    </text>
    <g>
      <rect style="fill: #ffffff; fill-opacity: 1; stroke-opacity: 0; stroke-width: 0.02; stroke: #ffffff" x="390.713" y="677.118" width="123.383" height="20.5638" rx="0" ry="0"/>
      <rect style="fill: none; stroke-opacity: 1; stroke-width: 2.05638; stroke: #000000" x="390.713" y="677.118" width="123.383" height="20.5638" rx="0" ry="0"/>
    </g>
    <text font-size="13.1625" style="fill: #000000; fill-opacity: 1; stroke: none;text-anchor:start;font-family:monospace;font-style:normal;font-weight:normal" x="441.44" y="692.617">
      <tspan x="441.44" y="692.617">sbin</tspan>
    </text>
    <g>
      <rect style="fill: #ffffff; fill-opacity: 1; stroke-opacity: 0; stroke-width: 0.02; stroke: #ffffff" x="390.713" y="718.246" width="123.383" height="20.5638" rx="0" ry="0"/>
      <rect style="fill: none; stroke-opacity: 1; stroke-width: 2.05638; stroke: #000000" x="390.713" y="718.246" width="123.383" height="20.5638" rx="0" ry="0"/>
    </g>
    <text font-size="13.1625" style="fill: #000000; fill-opacity: 1; stroke: none;text-anchor:start;font-family:monospace;font-style:normal;font-weight:normal" x="441.44" y="733.745">
      <tspan x="441.44" y="733.745">tmp</tspan>
    </text>
    <g>
      <rect style="fill: #ffffff; fill-opacity: 1; stroke-opacity: 0; stroke-width: 0.02; stroke: #ffffff" x="390.713" y="759.373" width="123.383" height="20.5638" rx="0" ry="0"/>
      <rect style="fill: none; stroke-opacity: 1; stroke-width: 2.05638; stroke: #000000" x="390.713" y="759.373" width="123.383" height="20.5638" rx="0" ry="0"/>
    </g>
    <text font-size="13.1625" style="fill: #000000; fill-opacity: 1; stroke: none;text-anchor:start;font-family:monospace;font-style:normal;font-weight:normal" x="441.44" y="774.872">
      <tspan x="441.44" y="774.872">usr</tspan>
    </text>
    <g>
      <rect style="fill: #ffffff; fill-opacity: 1; stroke-opacity: 0; stroke-width: 0.02; stroke: #ffffff" x="390.713" y="800.501" width="123.383" height="20.5638" rx="0" ry="0"/>
      <rect style="fill: none; stroke-opacity: 1; stroke-width: 2.05638; stroke: #000000" x="390.713" y="800.501" width="123.383" height="20.5638" rx="0" ry="0"/>
    </g>
    <text font-size="13.1625" style="fill: #000000; fill-opacity: 1; stroke: none;text-anchor:start;font-family:monospace;font-style:normal;font-weight:normal" x="441.44" y="816">
      <tspan x="441.44" y="816">var</tspan>
    </text>
    <g>
      <rect style="fill: #ffffff; fill-opacity: 1; stroke-opacity: 0; stroke-width: 0.02; stroke: #ffffff" x="390.713" y="841.629" width="123.383" height="20.5638" rx="0" ry="0"/>
      <rect style="fill: none; stroke-opacity: 1; stroke-width: 2.05638; stroke: #000000" x="390.713" y="841.629" width="123.383" height="20.5638" rx="0" ry="0"/>
    </g>
    <text font-size="13.1625" style="fill: #000000; fill-opacity: 1; stroke: none;text-anchor:start;font-family:monospace;font-style:normal;font-weight:normal" x="441.44" y="857.128">
      <tspan x="441.44" y="857.128">srv</tspan>
    </text>
    <g>
      <rect style="fill: #ffffff; fill-opacity: 1; stroke-opacity: 0; stroke-width: 0.02; stroke: #ffffff" x="616.915" y="164.511" width="123.383" height="20.5638" rx="0" ry="0"/>
      <rect style="fill: none; stroke-opacity: 1; stroke-width: 2.05638; stroke: #000000" x="616.915" y="164.511" width="123.383" height="20.5638" rx="0" ry="0"/>
    </g>
    <text font-size="13.1625" style="fill: #000000; fill-opacity: 1; stroke: none;text-anchor:start;font-family:monospace;font-style:normal;font-weight:normal" x="667.642" y="180.01">
      <tspan x="667.642" y="180.01">sda1</tspan>
    </text>
    <g>
      <rect style="fill: #ffffff; fill-opacity: 1; stroke-opacity: 0; stroke-width: 0.02; stroke: #ffffff" x="616.915" y="205.638" width="123.383" height="20.5638" rx="0" ry="0"/>
      <rect style="fill: none; stroke-opacity: 1; stroke-width: 2.05638; stroke: #000000" x="616.915" y="205.638" width="123.383" height="20.5638" rx="0" ry="0"/>
    </g>
    <text font-size="13.1625" style="fill: #000000; fill-opacity: 1; stroke: none;text-anchor:start;font-family:monospace;font-style:normal;font-weight:normal" x="667.642" y="221.137">
      <tspan x="667.642" y="221.137">fd0</tspan>
    </text>
    <g>
      <rect style="fill: #ffffff; fill-opacity: 1; stroke-opacity: 0; stroke-width: 0.02; stroke: #ffffff" x="616.915" y="246.766" width="123.383" height="20.5638" rx="0" ry="0"/>
      <rect style="fill: none; stroke-opacity: 1; stroke-width: 2.05638; stroke: #000000" x="616.915" y="246.766" width="123.383" height="20.5638" rx="0" ry="0"/>
    </g>
    <text font-size="13.1625" style="fill: #000000; fill-opacity: 1; stroke: none;text-anchor:start;font-family:monospace;font-style:normal;font-weight:normal" x="667.642" y="262.265">
      <tspan x="667.642" y="262.265">null</tspan>
    </text>
    <g>
      <rect style="fill: #ffffff; fill-opacity: 1; stroke-opacity: 0; stroke-width: 0.02; stroke: #ffffff" x="616.915" y="287.894" width="123.383" height="20.5638" rx="0" ry="0"/>
      <rect style="fill: none; stroke-opacity: 1; stroke-width: 2.05638; stroke: #000000" x="616.915" y="287.894" width="123.383" height="20.5638" rx="0" ry="0"/>
    </g>
    <text font-size="13.1625" style="fill: #000000; fill-opacity: 1; stroke: none;text-anchor:start;font-family:monospace;font-style:normal;font-weight:normal" x="667.642" y="303.393">
      <tspan x="667.642" y="303.393">i2c-0</tspan>
    </text>
    <line style="fill: none; stroke-opacity: 1; stroke-width: 1.02819; stroke-dasharray: 3.29022; stroke: #000000" x1="493.492" y1="225.279" x2="637.519" y2="185.998"/>
    <line style="fill: none; stroke-opacity: 1; stroke-width: 1.02819; stroke-dasharray: 3.29022; stroke: #000000" x1="514.699" y1="230.821" x2="616.313" y2="221.584"/>
    <line style="fill: none; stroke-opacity: 1; stroke-width: 1.02819; stroke-dasharray: 3.29022; stroke: #000000" x1="514.699" y1="242.148" x2="616.313" y2="251.385"/>
    <line style="fill: none; stroke-opacity: 1; stroke-width: 1.02819; stroke-dasharray: 3.29022; stroke: #000000" x1="493.492" y1="247.689" x2="637.519" y2="286.971"/>
    <g>
      <rect style="fill: #ffffff; fill-opacity: 1; stroke-opacity: 0; stroke-width: 0.02; stroke: #ffffff" x="616.915" y="635.99" width="123.383" height="20.5638" rx="0" ry="0"/>
      <rect style="fill: none; stroke-opacity: 1; stroke-width: 2.05638; stroke: #000000" x="616.915" y="635.99" width="123.383" height="20.5638" rx="0" ry="0"/>
    </g>
    <text font-size="13.1625" style="fill: #000000; fill-opacity: 1; stroke: none;text-anchor:start;font-family:monospace;font-style:normal;font-weight:normal" x="667.642" y="651.489">
      <tspan x="667.642" y="651.489">bin</tspan>
    </text>
    <g>
      <rect style="fill: #ffffff; fill-opacity: 1; stroke-opacity: 0; stroke-width: 0.02; stroke: #ffffff" x="616.915" y="677.118" width="123.383" height="20.5638" rx="0" ry="0"/>
      <rect style="fill: none; stroke-opacity: 1; stroke-width: 2.05638; stroke: #000000" x="616.915" y="677.118" width="123.383" height="20.5638" rx="0" ry="0"/>
    </g>
    <text font-size="13.1625" style="fill: #000000; fill-opacity: 1; stroke: none;text-anchor:start;font-family:monospace;font-style:normal;font-weight:normal" x="667.642" y="692.617">
      <tspan x="667.642" y="692.617">include</tspan>
    </text>
    <g>
      <rect style="fill: #ffffff; fill-opacity: 1; stroke-opacity: 0; stroke-width: 0.02; stroke: #ffffff" x="616.915" y="718.246" width="123.383" height="20.5638" rx="0" ry="0"/>
      <rect style="fill: none; stroke-opacity: 1; stroke-width: 2.05638; stroke: #000000" x="616.915" y="718.246" width="123.383" height="20.5638" rx="0" ry="0"/>
    </g>
    <text font-size="13.1625" style="fill: #000000; fill-opacity: 1; stroke: none;text-anchor:start;font-family:monospace;font-style:normal;font-weight:normal" x="667.642" y="733.745">
      <tspan x="667.642" y="733.745">lib</tspan>
    </text>
    <g>
      <rect style="fill: #ffffff; fill-opacity: 1; stroke-opacity: 0; stroke-width: 0.02; stroke: #ffffff" x="616.915" y="759.373" width="123.383" height="20.5638" rx="0" ry="0"/>
      <rect style="fill: none; stroke-opacity: 1; stroke-width: 2.05638; stroke: #000000" x="616.915" y="759.373" width="123.383" height="20.5638" rx="0" ry="0"/>
    </g>
    <text font-size="13.1625" style="fill: #000000; fill-opacity: 1; stroke: none;text-anchor:start;font-family:monospace;font-style:normal;font-weight:normal" x="667.642" y="774.872">
      <tspan x="667.642" y="774.872">local</tspan>
    </text>
    <g>
      <rect style="fill: #ffffff; fill-opacity: 1; stroke-opacity: 0; stroke-width: 0.02; stroke: #ffffff" x="616.915" y="800.501" width="123.383" height="20.5638" rx="0" ry="0"/>
      <rect style="fill: none; stroke-opacity: 1; stroke-width: 2.05638; stroke: #000000" x="616.915" y="800.501" width="123.383" height="20.5638" rx="0" ry="0"/>
    </g>
    <text font-size="13.1625" style="fill: #000000; fill-opacity: 1; stroke: none;text-anchor:start;font-family:monospace;font-style:normal;font-weight:normal" x="667.642" y="816">
      <tspan x="667.642" y="816">sbin</tspan>
    </text>
    <g>
      <rect style="fill: #ffffff; fill-opacity: 1; stroke-opacity: 0; stroke-width: 0.02; stroke: #ffffff" x="616.915" y="841.629" width="123.383" height="20.5638" rx="0" ry="0"/>
      <rect style="fill: none; stroke-opacity: 1; stroke-width: 2.05638; stroke: #000000" x="616.915" y="841.629" width="123.383" height="20.5638" rx="0" ry="0"/>
    </g>
    <text font-size="13.1625" style="fill: #000000; fill-opacity: 1; stroke: none;text-anchor:start;font-family:monospace;font-style:normal;font-weight:normal" x="667.642" y="857.128">
      <tspan x="667.642" y="857.128">share</tspan>
    </text>
    <g>
      <rect style="fill: #ffffff; fill-opacity: 1; stroke-opacity: 0; stroke-width: 0.02; stroke: #ffffff" x="616.915" y="882.757" width="123.383" height="20.5638" rx="0" ry="0"/>
      <rect style="fill: none; stroke-opacity: 1; stroke-width: 2.05638; stroke: #000000" x="616.915" y="882.757" width="123.383" height="20.5638" rx="0" ry="0"/>
    </g>
    <text font-size="13.1625" style="fill: #000000; fill-opacity: 1; stroke: none;text-anchor:start;font-family:monospace;font-style:normal;font-weight:normal" x="667.642" y="898.256">
      <tspan x="667.642" y="898.256">src</tspan>
    </text>
    <text font-size="12.7998" style="fill: #000000; fill-opacity: 1; stroke: none;text-anchor:start;font-family:sans-serif;font-style:normal;font-weight:normal" x="455.396" y="593.3">
      <tspan x="455.396" y="593.3"></tspan>
    </text>
    <text font-size="13.1625" style="fill: #000000; fill-opacity: 1; stroke: none;text-anchor:start;font-family:monospace;font-style:normal;font-weight:normal" x="441.445" y="609.149">
      <tspan x="441.445" y="609.149">root</tspan>
    </text>
    <line style="fill: none; stroke-opacity: 1; stroke-width: 1.02819; stroke-dasharray: 3.29022; stroke: #000000" x1="211.378" y1="493.536" x2="430.268" y2="594.993"/>
  </g>
</svg>
