<?xml version="1.0" encoding="UTF-8" standalone="no"?>
<!DOCTYPE svg PUBLIC "-//W3C//DTD SVG 1.0//EN" "http://www.w3.org/TR/2001/PR-SVG-20010719/DTD/svg10.dtd">
<svg width="31cm" height="36cm" viewBox="118 138 603 703" xmlns="http://www.w3.org/2000/svg" xmlns:xlink="http://www.w3.org/1999/xlink">
  <line style="fill: none; fill-opacity:0; stroke-width: 1; stroke-dasharray: 3.2; stroke: #000000" x1="459.98" y1="699.102" x2="640.02" y2="600.898"/>
  <line style="fill: none; fill-opacity:0; stroke-width: 1; stroke-dasharray: 3.2; stroke: #000000" x1="470.186" y1="699.023" x2="629.814" y2="640.977"/>
  <line style="fill: none; fill-opacity:0; stroke-width: 1; stroke-dasharray: 3.2; stroke: #000000" x1="500.371" y1="699.023" x2="599.629" y2="680.977"/>
  <line style="fill: none; fill-opacity:0; stroke-width: 1; stroke-dasharray: 3.2; stroke: #000000" x1="500.586" y1="710" x2="599.414" y2="710"/>
  <line style="fill: none; fill-opacity:0; stroke-width: 1; stroke-dasharray: 3.2; stroke: #000000" x1="500.371" y1="720.977" x2="599.629" y2="739.023"/>
  <line style="fill: none; fill-opacity:0; stroke-width: 1; stroke-dasharray: 3.2; stroke: #000000" x1="470.186" y1="720.977" x2="629.814" y2="779.023"/>
  <line style="fill: none; fill-opacity:0; stroke-width: 1; stroke-dasharray: 3.2; stroke: #000000" x1="459.98" y1="720.898" x2="640.02" y2="819.102"/>
  <line style="fill: none; fill-opacity:0; stroke-width: 1; stroke-dasharray: 3.2; stroke: #000000" x1="192.781" y1="459.023" x2="431.219" y2="160.977"/>
  <line style="fill: none; fill-opacity:0; stroke-width: 1; stroke-dasharray: 3.2; stroke: #000000" x1="194.031" y1="459.028" x2="429.969" y2="200.972"/>
  <line style="fill: none; fill-opacity:0; stroke-width: 1; stroke-dasharray: 3.2; stroke: #000000" x1="195.625" y1="459.102" x2="428.375" y2="240.898"/>
  <line style="fill: none; fill-opacity:0; stroke-width: 1; stroke-dasharray: 3.2; stroke: #000000" x1="198.078" y1="459.001" x2="425.922" y2="280.999"/>
  <line style="fill: none; fill-opacity:0; stroke-width: 1; stroke-dasharray: 3.2; stroke: #000000" x1="201.562" y1="459.023" x2="422.438" y2="320.977"/>
  <line style="fill: none; fill-opacity:0; stroke-width: 1; stroke-dasharray: 3.2; stroke: #000000" x1="207.25" y1="459.102" x2="416.75" y2="360.898"/>
  <line style="fill: none; fill-opacity:0; stroke-width: 1; stroke-dasharray: 3.2; stroke: #000000" x1="404.875" y1="400.977" x2="219.125" y2="459.023"/>
  <line style="fill: none; fill-opacity:0; stroke-width: 1; stroke-dasharray: 3.2; stroke: #000000" x1="378.992" y1="439.532" x2="249.008" y2="459.843"/>
  <line style="fill: none; fill-opacity:0; stroke-width: 1; stroke-dasharray: 3.2; stroke: #000000" x1="249.008" y1="470" x2="378.992" y2="470"/>
  <line style="fill: none; fill-opacity:0; stroke-width: 1; stroke-dasharray: 3.2; stroke: #000000" x1="249.008" y1="480.157" x2="378.992" y2="500.468"/>
  <line style="fill: none; fill-opacity:0; stroke-width: 1; stroke-dasharray: 3.2; stroke: #000000" x1="219.125" y1="480.977" x2="404.875" y2="539.023"/>
  <line style="fill: none; fill-opacity:0; stroke-width: 1; stroke-dasharray: 3.2; stroke: #000000" x1="207.25" y1="480.898" x2="416.75" y2="579.102"/>
  <line style="fill: none; fill-opacity:0; stroke-width: 1; stroke-dasharray: 3.2; stroke: #000000" x1="201.562" y1="480.977" x2="422.438" y2="619.023"/>
  <line style="fill: none; fill-opacity:0; stroke-width: 1; stroke-dasharray: 3.2; stroke: #000000" x1="198.078" y1="480.999" x2="425.922" y2="659.001"/>
  <line style="fill: none; fill-opacity:0; stroke-width: 1; stroke-dasharray: 3.2; stroke: #000000" x1="195.625" y1="480.898" x2="428.375" y2="699.102"/>
  <line style="fill: none; fill-opacity:0; stroke-width: 1; stroke-dasharray: 3.2; stroke: #000000" x1="194.031" y1="480.972" x2="429.969" y2="739.028"/>
  <line style="fill: none; fill-opacity:0; stroke-width: 1; stroke-dasharray: 3.2; stroke: #000000" x1="192.781" y1="480.977" x2="431.219" y2="779.023"/>
  <g>
    <rect style="fill: #ffffff" x="380" y="140" width="120" height="20"/>
    <rect style="fill: none; fill-opacity:0; stroke-width: 2; stroke: #000000" x="380" y="140" width="120" height="20"/>
  </g>
  <text font-size="12.8016" style="fill: #000000;text-anchor:start;font-family:monospace;font-style:normal;font-weight:normal" x="429.336" y="155.074">
    <tspan x="429.336" y="155.074">bin</tspan>
  </text>
  <g>
    <rect style="fill: #ffffff" x="120" y="460" width="128" height="20"/>
    <rect style="fill: none; fill-opacity:0; stroke-width: 2; stroke: #000000" x="120" y="460" width="128" height="20"/>
  </g>
  <text font-size="12.8016" style="fill: #000000;text-anchor:start;font-family:monospace;font-style:normal;font-weight:700" x="160" y="476.144">
    <tspan x="160" y="476.144">/ (root)</tspan>
  </text>
  <g>
    <rect style="fill: #ffffff" x="380" y="180" width="120" height="20"/>
    <rect style="fill: none; fill-opacity:0; stroke-width: 2; stroke: #000000" x="380" y="180" width="120" height="20"/>
  </g>
  <text font-size="12.8016" style="fill: #000000;text-anchor:start;font-family:monospace;font-style:normal;font-weight:normal" x="429.336" y="195.074">
    <tspan x="429.336" y="195.074">boot</tspan>
  </text>
  <g>
    <rect style="fill: #ffffff" x="380" y="220" width="120" height="20"/>
    <rect style="fill: none; fill-opacity:0; stroke-width: 2; stroke: #000000" x="380" y="220" width="120" height="20"/>
  </g>
  <text font-size="12.8016" style="fill: #000000;text-anchor:start;font-family:monospace;font-style:normal;font-weight:normal" x="429.336" y="235.074">
    <tspan x="429.336" y="235.074">dev</tspan>
  </text>
  <g>
    <rect style="fill: #ffffff" x="380" y="260" width="120" height="20"/>
    <rect style="fill: none; fill-opacity:0; stroke-width: 2; stroke: #000000" x="380" y="260" width="120" height="20"/>
  </g>
  <text font-size="12.8016" style="fill: #000000;text-anchor:start;font-family:monospace;font-style:normal;font-weight:normal" x="429.336" y="275.074">
    <tspan x="429.336" y="275.074">etc</tspan>
  </text>
  <g>
    <rect style="fill: #ffffff" x="380" y="300" width="120" height="20"/>
    <rect style="fill: none; fill-opacity:0; stroke-width: 2; stroke: #000000" x="380" y="300" width="120" height="20"/>
  </g>
  <text font-size="12.8016" style="fill: #000000;text-anchor:start;font-family:monospace;font-style:normal;font-weight:normal" x="429.336" y="315.074">
    <tspan x="429.336" y="315.074">home</tspan>
  </text>
  <g>
    <rect style="fill: #ffffff" x="380" y="340" width="120" height="20"/>
    <rect style="fill: none; fill-opacity:0; stroke-width: 2; stroke: #000000" x="380" y="340" width="120" height="20"/>
  </g>
  <text font-size="12.8016" style="fill: #000000;text-anchor:start;font-family:monospace;font-style:normal;font-weight:normal" x="429.336" y="355.074">
    <tspan x="429.336" y="355.074">lib</tspan>
  </text>
  <g>
    <rect style="fill: #ffffff" x="380" y="380" width="120" height="20"/>
    <rect style="fill: none; fill-opacity:0; stroke-width: 2; stroke: #000000" x="380" y="380" width="120" height="20"/>
  </g>
  <text font-size="12.8016" style="fill: #000000;text-anchor:start;font-family:monospace;font-style:normal;font-weight:normal" x="429.336" y="395.074">
    <tspan x="429.336" y="395.074">lib64</tspan>
  </text>
  <g>
    <rect style="fill: #ffffff" x="380" y="420" width="120" height="20"/>
    <rect style="fill: none; fill-opacity:0; stroke-width: 2; stroke: #000000" x="380" y="420" width="120" height="20"/>
  </g>
  <text font-size="12.8016" style="fill: #000000;text-anchor:start;font-family:monospace;font-style:normal;font-weight:normal" x="429.336" y="435.074">
    <tspan x="429.336" y="435.074">media</tspan>
  </text>
  <g>
    <rect style="fill: #ffffff" x="380" y="460" width="120" height="20"/>
    <rect style="fill: none; fill-opacity:0; stroke-width: 2; stroke: #000000" x="380" y="460" width="120" height="20"/>
  </g>
  <text font-size="12.8016" style="fill: #000000;text-anchor:start;font-family:monospace;font-style:normal;font-weight:normal" x="429.336" y="475.074">
    <tspan x="429.336" y="475.074">mnt</tspan>
  </text>
  <g>
    <rect style="fill: #ffffff" x="380" y="500" width="120" height="20"/>
    <rect style="fill: none; fill-opacity:0; stroke-width: 2; stroke: #000000" x="380" y="500" width="120" height="20"/>
  </g>
  <text font-size="12.8016" style="fill: #000000;text-anchor:start;font-family:monospace;font-style:normal;font-weight:normal" x="429.336" y="515.074">
    <tspan x="429.336" y="515.074">opt</tspan>
  </text>
  <g>
    <rect style="fill: #ffffff" x="380" y="540" width="120" height="20"/>
    <rect style="fill: none; fill-opacity:0; stroke-width: 2; stroke: #000000" x="380" y="540" width="120" height="20"/>
  </g>
  <text font-size="12.8016" style="fill: #000000;text-anchor:start;font-family:monospace;font-style:normal;font-weight:normal" x="429.336" y="555.074">
    <tspan x="429.336" y="555.074">proc</tspan>
  </text>
  <g>
    <rect style="fill: #ffffff" x="380" y="580" width="120" height="20"/>
    <rect style="fill: none; fill-opacity:0; stroke-width: 2; stroke: #000000" x="380" y="580" width="120" height="20"/>
  </g>
  <text font-size="12.8016" style="fill: #000000;text-anchor:start;font-family:monospace;font-style:normal;font-weight:normal" x="429.336" y="595.074">
    <tspan x="429.336" y="595.074">run</tspan>
  </text>
  <g>
    <rect style="fill: #ffffff" x="380" y="620" width="120" height="20"/>
    <rect style="fill: none; fill-opacity:0; stroke-width: 2; stroke: #000000" x="380" y="620" width="120" height="20"/>
  </g>
  <text font-size="12.8016" style="fill: #000000;text-anchor:start;font-family:monospace;font-style:normal;font-weight:normal" x="429.336" y="635.074">
    <tspan x="429.336" y="635.074">sbin</tspan>
  </text>
  <g>
    <rect style="fill: #ffffff" x="380" y="660" width="120" height="20"/>
    <rect style="fill: none; fill-opacity:0; stroke-width: 2; stroke: #000000" x="380" y="660" width="120" height="20"/>
  </g>
  <text font-size="12.8016" style="fill: #000000;text-anchor:start;font-family:monospace;font-style:normal;font-weight:normal" x="429.336" y="675.074">
    <tspan x="429.336" y="675.074">tmp</tspan>
  </text>
  <g>
    <rect style="fill: #ffffff" x="380" y="700" width="120" height="20"/>
    <rect style="fill: none; fill-opacity:0; stroke-width: 2; stroke: #000000" x="380" y="700" width="120" height="20"/>
  </g>
  <text font-size="12.8016" style="fill: #000000;text-anchor:start;font-family:monospace;font-style:normal;font-weight:normal" x="429.336" y="715.074">
    <tspan x="429.336" y="715.074">usr</tspan>
  </text>
  <g>
    <rect style="fill: #ffffff" x="380" y="740" width="120" height="20"/>
    <rect style="fill: none; fill-opacity:0; stroke-width: 2; stroke: #000000" x="380" y="740" width="120" height="20"/>
  </g>
  <text font-size="12.8016" style="fill: #000000;text-anchor:start;font-family:monospace;font-style:normal;font-weight:normal" x="429.336" y="755.074">
    <tspan x="429.336" y="755.074">var</tspan>
  </text>
  <g>
    <rect style="fill: #ffffff" x="380" y="780" width="120" height="20"/>
    <rect style="fill: none; fill-opacity:0; stroke-width: 2; stroke: #000000" x="380" y="780" width="120" height="20"/>
  </g>
  <text font-size="12.8016" style="fill: #000000;text-anchor:start;font-family:monospace;font-style:normal;font-weight:normal" x="429.336" y="795.074">
    <tspan x="429.336" y="795.074">srv</tspan>
  </text>
  <g>
    <rect style="fill: #ffffff" x="600" y="160" width="120" height="20"/>
    <rect style="fill: none; fill-opacity:0; stroke-width: 2; stroke: #000000" x="600" y="160" width="120" height="20"/>
  </g>
  <text font-size="12.8016" style="fill: #000000;text-anchor:start;font-family:monospace;font-style:normal;font-weight:normal" x="649.336" y="175.074">
    <tspan x="649.336" y="175.074">sda1</tspan>
  </text>
  <g>
    <rect style="fill: #ffffff" x="600" y="200" width="120" height="20"/>
    <rect style="fill: none; fill-opacity:0; stroke-width: 2; stroke: #000000" x="600" y="200" width="120" height="20"/>
  </g>
  <text font-size="12.8016" style="fill: #000000;text-anchor:start;font-family:monospace;font-style:normal;font-weight:normal" x="649.336" y="215.074">
    <tspan x="649.336" y="215.074">fd0</tspan>
  </text>
  <g>
    <rect style="fill: #ffffff" x="600" y="240" width="120" height="20"/>
    <rect style="fill: none; fill-opacity:0; stroke-width: 2; stroke: #000000" x="600" y="240" width="120" height="20"/>
  </g>
  <text font-size="12.8016" style="fill: #000000;text-anchor:start;font-family:monospace;font-style:normal;font-weight:normal" x="649.336" y="255.074">
    <tspan x="649.336" y="255.074">null</tspan>
  </text>
  <g>
    <rect style="fill: #ffffff" x="600" y="280" width="120" height="20"/>
    <rect style="fill: none; fill-opacity:0; stroke-width: 2; stroke: #000000" x="600" y="280" width="120" height="20"/>
  </g>
  <text font-size="12.8016" style="fill: #000000;text-anchor:start;font-family:monospace;font-style:normal;font-weight:normal" x="649.336" y="295.074">
    <tspan x="649.336" y="295.074">i2c-0</tspan>
  </text>
  <line style="fill: none; fill-opacity:0; stroke-width: 1; stroke-dasharray: 3.2; stroke: #000000" x1="479.961" y1="219.102" x2="620.039" y2="180.898"/>
  <line style="fill: none; fill-opacity:0; stroke-width: 1; stroke-dasharray: 3.2; stroke: #000000" x1="500.586" y1="224.492" x2="599.414" y2="215.508"/>
  <line style="fill: none; fill-opacity:0; stroke-width: 1; stroke-dasharray: 3.2; stroke: #000000" x1="500.586" y1="235.508" x2="599.414" y2="244.492"/>
  <line style="fill: none; fill-opacity:0; stroke-width: 1; stroke-dasharray: 3.2; stroke: #000000" x1="479.961" y1="240.898" x2="620.039" y2="279.102"/>
  <g>
    <rect style="fill: #ffffff" x="600" y="580" width="120" height="20"/>
    <rect style="fill: none; fill-opacity:0; stroke-width: 2; stroke: #000000" x="600" y="580" width="120" height="20"/>
  </g>
  <text font-size="12.8016" style="fill: #000000;text-anchor:start;font-family:monospace;font-style:normal;font-weight:normal" x="649.336" y="595.074">
    <tspan x="649.336" y="595.074">bin</tspan>
  </text>
  <g>
    <rect style="fill: #ffffff" x="600" y="620" width="120" height="20"/>
    <rect style="fill: none; fill-opacity:0; stroke-width: 2; stroke: #000000" x="600" y="620" width="120" height="20"/>
  </g>
  <text font-size="12.8016" style="fill: #000000;text-anchor:start;font-family:monospace;font-style:normal;font-weight:normal" x="649.336" y="635.074">
    <tspan x="649.336" y="635.074">include</tspan>
  </text>
  <g>
    <rect style="fill: #ffffff" x="600" y="660" width="120" height="20"/>
    <rect style="fill: none; fill-opacity:0; stroke-width: 2; stroke: #000000" x="600" y="660" width="120" height="20"/>
  </g>
  <text font-size="12.8016" style="fill: #000000;text-anchor:start;font-family:monospace;font-style:normal;font-weight:normal" x="649.336" y="675.074">
    <tspan x="649.336" y="675.074">lib</tspan>
  </text>
  <g>
    <rect style="fill: #ffffff" x="600" y="700" width="120" height="20"/>
    <rect style="fill: none; fill-opacity:0; stroke-width: 2; stroke: #000000" x="600" y="700" width="120" height="20"/>
  </g>
  <text font-size="12.8016" style="fill: #000000;text-anchor:start;font-family:monospace;font-style:normal;font-weight:normal" x="649.336" y="715.074">
    <tspan x="649.336" y="715.074">local</tspan>
  </text>
  <g>
    <rect style="fill: #ffffff" x="600" y="740" width="120" height="20"/>
    <rect style="fill: none; fill-opacity:0; stroke-width: 2; stroke: #000000" x="600" y="740" width="120" height="20"/>
  </g>
  <text font-size="12.8016" style="fill: #000000;text-anchor:start;font-family:monospace;font-style:normal;font-weight:normal" x="649.336" y="755.074">
    <tspan x="649.336" y="755.074">sbin</tspan>
  </text>
  <g>
    <rect style="fill: #ffffff" x="600" y="780" width="120" height="20"/>
    <rect style="fill: none; fill-opacity:0; stroke-width: 2; stroke: #000000" x="600" y="780" width="120" height="20"/>
  </g>
  <text font-size="12.8016" style="fill: #000000;text-anchor:start;font-family:monospace;font-style:normal;font-weight:normal" x="649.336" y="795.074">
    <tspan x="649.336" y="795.074">share</tspan>
  </text>
  <g>
    <rect style="fill: #ffffff" x="600" y="820" width="120" height="20"/>
    <rect style="fill: none; fill-opacity:0; stroke-width: 2; stroke: #000000" x="600" y="820" width="120" height="20"/>
  </g>
  <text font-size="12.8016" style="fill: #000000;text-anchor:start;font-family:monospace;font-style:normal;font-weight:normal" x="649.336" y="835.074">
    <tspan x="649.336" y="835.074">src</tspan>
  </text>
</svg>
